<svg width="1600" height="309" viewBox="0 0 1600 309" fill="none" xmlns="http://www.w3.org/2000/svg">
<g opacity="0.4">
<path d="M0.381964 -0.455078L800.825 -0.0731251L800.443 800.236L0 799.854L0.381964 -0.455078ZM799.67 1.08109L1.53637 0.700236L1.15551 798.7L799.289 799.081L799.67 1.08109Z" fill="#0EACEF"/>
<path d="M800.231 30.6431L0.942867 30.2617L0.942315 31.4164L800.23 31.7978L800.231 30.6431Z" fill="#0EACEF"/>
<path d="M800.216 61.4179L0.927682 61.0365L0.927131 62.1913L800.215 62.5727L800.216 61.4179Z" fill="#0EACEF"/>
<path d="M800.203 92.1343L0.914395 91.7529L0.913844 92.9077L800.202 93.2891L800.203 92.1343Z" fill="#0EACEF"/>
<path d="M800.185 122.851L0.897313 122.47L0.896762 123.625L800.185 124.006L800.185 122.851Z" fill="#0EACEF"/>
<path d="M800.17 153.626L0.882128 153.244L0.881577 154.399L800.17 154.78L800.17 153.626Z" fill="#0EACEF"/>
<path d="M800.157 184.342L0.868842 183.961L0.86829 185.115L800.156 185.497L800.157 184.342Z" fill="#0EACEF"/>
<path d="M800.142 215.059L0.853657 214.678L0.853106 215.832L800.141 216.214L800.142 215.059Z" fill="#0EACEF"/>
<path d="M800.129 245.833L0.84037 245.452L0.839819 246.607L800.128 246.988L800.129 245.833Z" fill="#0EACEF"/>
<path d="M800.113 276.55L0.825186 276.169L0.824635 277.324L800.113 277.705L800.113 276.55Z" fill="#0EACEF"/>
<path d="M800.098 307.267L0.810001 306.885L0.80945 308.04L800.098 308.422L800.098 307.267Z" fill="#0EACEF"/>
<path d="M800.083 338.042L0.794817 337.66L0.794266 338.815L800.082 339.196L800.083 338.042Z" fill="#0EACEF"/>
<path d="M800.068 368.758L0.779632 368.377L0.779081 369.531L800.067 369.913L800.068 368.758Z" fill="#0EACEF"/>
<path d="M800.055 399.475L0.766345 399.093L0.765794 400.248L800.054 400.629L800.055 399.475Z" fill="#0EACEF"/>
<path d="M800.039 430.249L0.751161 429.868L0.75061 431.023L800.039 431.404L800.039 430.249Z" fill="#0EACEF"/>
<path d="M800.024 460.966L0.735976 460.584L0.735425 461.739L800.024 462.121L800.024 460.966Z" fill="#0EACEF"/>
<path d="M800.011 491.683L0.72269 491.301L0.722139 492.456L800.01 492.838L800.011 491.683Z" fill="#0EACEF"/>
<path d="M799.996 522.457L0.707505 522.076L0.706954 523.231L799.995 523.612L799.996 522.457Z" fill="#0EACEF"/>
<path d="M799.98 553.174L0.692321 552.792L0.691769 553.947L799.98 554.328L799.98 553.174Z" fill="#0EACEF"/>
<path d="M799.967 583.949L0.679034 583.567L0.678483 584.722L799.967 585.103L799.967 583.949Z" fill="#0EACEF"/>
<path d="M799.952 614.665L0.663849 614.284L0.663298 615.438L799.951 615.82L799.952 614.665Z" fill="#0EACEF"/>
<path d="M799.937 645.382L0.648665 645.001L0.648114 646.155L799.936 646.537L799.937 645.382Z" fill="#0EACEF"/>
<path d="M799.922 676.156L0.63348 675.775L0.632929 676.93L799.921 677.311L799.922 676.156Z" fill="#0EACEF"/>
<path d="M799.905 706.873L0.616398 706.491L0.615846 707.646L799.904 708.027L799.905 706.873Z" fill="#0EACEF"/>
<path d="M799.891 737.59L0.603111 737.208L0.60256 738.363L799.891 738.744L799.891 737.59Z" fill="#0EACEF"/>
<path d="M799.876 768.364L0.587926 767.983L0.587375 769.137L799.875 769.519L799.876 768.364Z" fill="#0EACEF"/>
<path d="M32.2601 0.137377L31.1052 0.136826L30.7238 799.291L31.8787 799.292L32.2601 0.137377Z" fill="#0EACEF"/>
<path d="M63.0393 0.152086L61.8844 0.151535L61.503 799.306L62.6579 799.306L63.0393 0.152086Z" fill="#0EACEF"/>
<path d="M93.7635 0.166735L92.6085 0.166184L92.2271 799.32L93.3821 799.321L93.7635 0.166735Z" fill="#0EACEF"/>
<path d="M124.476 0.181385L123.321 0.180834L122.94 799.335L124.095 799.336L124.476 0.181385Z" fill="#0EACEF"/>
<path d="M155.257 0.196153L154.102 0.195602L153.721 799.35L154.876 799.35L155.257 0.196153Z" fill="#0EACEF"/>
<path d="M185.98 0.210802L184.825 0.210251L184.443 799.365L185.598 799.365L185.98 0.210802Z" fill="#0EACEF"/>
<path d="M216.704 0.225333L215.549 0.224782L215.167 799.379L216.322 799.38L216.704 0.225333Z" fill="#0EACEF"/>
<path d="M247.485 0.240101L246.33 0.23955L245.949 799.394L247.103 799.394L247.485 0.240101Z" fill="#0EACEF"/>
<path d="M278.205 0.25475L277.05 0.254199L276.669 799.408L277.824 799.409L278.205 0.25475Z" fill="#0EACEF"/>
<path d="M308.929 0.269399L307.774 0.268848L307.393 799.423L308.548 799.424L308.929 0.269399Z" fill="#0EACEF"/>
<path d="M339.709 0.284167L338.554 0.283616L338.172 799.438L339.327 799.438L339.709 0.284167Z" fill="#0EACEF"/>
<path d="M370.433 0.298757L369.278 0.298206L368.896 799.453L370.051 799.453L370.433 0.298757Z" fill="#0EACEF"/>
<path d="M401.147 0.313407L399.992 0.312856L399.611 799.467L400.766 799.468L401.147 0.313407Z" fill="#0EACEF"/>
<path d="M431.927 0.328175L430.772 0.327623L430.39 799.482L431.545 799.482L431.927 0.328175Z" fill="#0EACEF"/>
<path d="M462.653 0.342765L461.498 0.342214L461.116 799.497L462.271 799.497L462.653 0.342765Z" fill="#0EACEF"/>
<path d="M493.373 0.357414L492.218 0.356863L491.837 799.511L492.992 799.512L493.373 0.357414Z" fill="#0EACEF"/>
<path d="M524.152 0.372123L522.997 0.371572L522.616 799.526L523.771 799.526L524.152 0.372123Z" fill="#0EACEF"/>
<path d="M554.876 0.386772L553.721 0.386221L553.34 799.54L554.495 799.541L554.876 0.386772Z" fill="#0EACEF"/>
<path d="M585.6 0.401421L584.446 0.40087L584.064 799.555L585.219 799.556L585.6 0.401421Z" fill="#0EACEF"/>
<path d="M616.38 0.416189L615.225 0.415638L614.843 799.57L615.998 799.57L616.38 0.416189Z" fill="#0EACEF"/>
<path d="M647.094 0.430839L645.939 0.430287L645.558 799.585L646.713 799.585L647.094 0.430839Z" fill="#0EACEF"/>
<path d="M677.874 0.445429L676.719 0.444878L676.337 799.599L677.492 799.6L677.874 0.445429Z" fill="#0EACEF"/>
<path d="M708.6 0.460137L707.445 0.459586L707.063 799.614L708.218 799.614L708.6 0.460137Z" fill="#0EACEF"/>
<path d="M739.322 0.474787L738.167 0.474235L737.786 799.628L738.94 799.629L739.322 0.474787Z" fill="#0EACEF"/>
<path d="M770.103 0.489436L768.948 0.488885L768.567 799.643L769.721 799.644L770.103 0.489436Z" fill="#0EACEF"/>
<path d="M799.557 -0.0736616L1600 0.308291L1599.62 800.617L799.175 800.235L799.557 -0.0736616ZM1598.84 1.4625L800.711 1.08165L800.33 799.081L1598.46 799.462L1598.84 1.4625Z" fill="#0EACEF"/>
<path d="M1599.41 31.0245L800.117 30.6431L800.116 31.7978L1599.4 32.1792L1599.41 31.0245Z" fill="#0EACEF"/>
<path d="M1599.39 61.7993L800.102 61.4179L800.101 62.5726L1599.39 62.954L1599.39 61.7993Z" fill="#0EACEF"/>
<path d="M1599.38 92.5157L800.088 92.1343L800.088 93.2891L1599.38 93.6705L1599.38 92.5157Z" fill="#0EACEF"/>
<path d="M1599.36 123.233L800.073 122.851L800.073 124.006L1599.36 124.388L1599.36 123.233Z" fill="#0EACEF"/>
<path d="M1599.35 154.007L800.058 153.626L800.057 154.78L1599.35 155.162L1599.35 154.007Z" fill="#0EACEF"/>
<path d="M1599.33 184.723L800.045 184.342L800.044 185.497L1599.33 185.878L1599.33 184.723Z" fill="#0EACEF"/>
<path d="M1599.32 215.441L800.03 215.059L800.029 216.214L1599.32 216.595L1599.32 215.441Z" fill="#0EACEF"/>
<path d="M1599.3 246.215L800.016 245.833L800.016 246.988L1599.3 247.37L1599.3 246.215Z" fill="#0EACEF"/>
<path d="M1599.29 276.932L800.001 276.55L800.001 277.705L1599.29 278.087L1599.29 276.932Z" fill="#0EACEF"/>
<path d="M1599.27 307.648L799.984 307.267L799.984 308.422L1599.27 308.803L1599.27 307.648Z" fill="#0EACEF"/>
<path d="M1599.26 338.423L799.969 338.042L799.968 339.196L1599.26 339.578L1599.26 338.423Z" fill="#0EACEF"/>
<path d="M1599.24 369.14L799.954 368.758L799.953 369.913L1599.24 370.294L1599.24 369.14Z" fill="#0EACEF"/>
<path d="M1599.23 399.856L799.94 399.475L799.94 400.629L1599.23 401.011L1599.23 399.856Z" fill="#0EACEF"/>
<path d="M1599.21 430.631L799.925 430.249L799.925 431.404L1599.21 431.786L1599.21 430.631Z" fill="#0EACEF"/>
<path d="M1599.2 461.347L799.91 460.966L799.909 462.121L1599.2 462.502L1599.2 461.347Z" fill="#0EACEF"/>
<path d="M1599.18 492.064L799.897 491.683L799.896 492.838L1599.18 493.219L1599.18 492.064Z" fill="#0EACEF"/>
<path d="M1599.17 522.839L799.882 522.457L799.881 523.612L1599.17 523.993L1599.17 522.839Z" fill="#0EACEF"/>
<path d="M1599.15 553.555L799.865 553.174L799.864 554.328L1599.15 554.71L1599.15 553.555Z" fill="#0EACEF"/>
<path d="M1599.14 584.33L799.851 583.949L799.851 585.103L1599.14 585.485L1599.14 584.33Z" fill="#0EACEF"/>
<path d="M1599.12 615.046L799.836 614.665L799.835 615.82L1599.12 616.201L1599.12 615.046Z" fill="#0EACEF"/>
<path d="M1599.11 645.763L799.823 645.382L799.822 646.537L1599.11 646.918L1599.11 645.763Z" fill="#0EACEF"/>
<path d="M1599.1 676.538L799.808 676.156L799.807 677.311L1599.1 677.692L1599.1 676.538Z" fill="#0EACEF"/>
<path d="M1599.08 707.254L799.792 706.873L799.792 708.027L1599.08 708.409L1599.08 707.254Z" fill="#0EACEF"/>
<path d="M1599.07 737.971L799.779 737.59L799.779 738.744L1599.07 739.126L1599.07 737.971Z" fill="#0EACEF"/>
<path d="M1599.05 768.745L799.764 768.364L799.763 769.519L1599.05 769.9L1599.05 768.745Z" fill="#0EACEF"/>
<path d="M831.436 0.518758L830.281 0.518207L829.9 799.672L831.055 799.673L831.436 0.518758Z" fill="#0EACEF"/>
<path d="M862.215 0.533467L861.06 0.532916L860.679 799.687L861.834 799.688L862.215 0.533467Z" fill="#0EACEF"/>
<path d="M892.938 0.548176L891.783 0.547624L891.401 799.702L892.556 799.702L892.938 0.548176Z" fill="#0EACEF"/>
<path d="M923.648 0.562766L922.493 0.562215L922.112 799.716L923.267 799.717L923.648 0.562766Z" fill="#0EACEF"/>
<path d="M954.43 0.577534L953.275 0.576982L952.893 799.731L954.048 799.732L954.43 0.577534Z" fill="#0EACEF"/>
<path d="M985.152 0.592124L983.997 0.591573L983.615 799.746L984.77 799.746L985.152 0.592124Z" fill="#0EACEF"/>
<path d="M1015.88 0.606773L1014.72 0.606222L1014.34 799.76L1015.49 799.761L1015.88 0.606773Z" fill="#0EACEF"/>
<path d="M1046.66 0.621541L1045.5 0.62099L1045.12 799.775L1046.28 799.776L1046.66 0.621541Z" fill="#0EACEF"/>
<path d="M1077.38 0.63619L1076.23 0.635639L1075.84 799.79L1077 799.79L1077.38 0.63619Z" fill="#0EACEF"/>
<path d="M1108.11 0.65084L1106.95 0.650288L1106.57 799.805L1107.72 799.805L1108.11 0.65084Z" fill="#0EACEF"/>
<path d="M1138.88 0.665548L1137.73 0.664997L1137.35 799.819L1138.5 799.82L1138.88 0.665548Z" fill="#0EACEF"/>
<path d="M1169.61 0.680138L1168.45 0.679587L1168.07 799.834L1169.23 799.834L1169.61 0.680138Z" fill="#0EACEF"/>
<path d="M1200.32 0.694788L1199.17 0.694237L1198.79 799.849L1199.94 799.849L1200.32 0.694788Z" fill="#0EACEF"/>
<path d="M1231.1 0.709556L1229.95 0.709005L1229.56 799.863L1230.72 799.864L1231.1 0.709556Z" fill="#0EACEF"/>
<path d="M1261.82 0.724205L1260.67 0.723654L1260.29 799.878L1261.44 799.878L1261.82 0.724205Z" fill="#0EACEF"/>
<path d="M1292.55 0.738795L1291.39 0.738244L1291.01 799.893L1292.17 799.893L1292.55 0.738795Z" fill="#0EACEF"/>
<path d="M1323.33 0.753563L1322.17 0.753012L1321.79 799.907L1322.95 799.908L1323.33 0.753563Z" fill="#0EACEF"/>
<path d="M1354.05 0.768212L1352.9 0.767661L1352.52 799.922L1353.67 799.922L1354.05 0.768212Z" fill="#0EACEF"/>
<path d="M1384.77 0.782862L1383.62 0.78231L1383.24 799.937L1384.39 799.937L1384.77 0.782862Z" fill="#0EACEF"/>
<path d="M1415.56 0.79757L1414.4 0.797019L1414.02 799.951L1415.17 799.952L1415.56 0.79757Z" fill="#0EACEF"/>
<path d="M1446.27 0.81216L1445.11 0.811609L1444.73 799.966L1445.89 799.966L1446.27 0.81216Z" fill="#0EACEF"/>
<path d="M1477.05 0.82681L1475.89 0.826259L1475.51 799.981L1476.67 799.981L1477.05 0.82681Z" fill="#0EACEF"/>
<path d="M1507.77 0.841578L1506.62 0.841026L1506.24 799.995L1507.39 799.996L1507.77 0.841578Z" fill="#0EACEF"/>
<path d="M1538.5 0.856227L1537.34 0.855676L1536.96 800.01L1538.12 800.01L1538.5 0.856227Z" fill="#0EACEF"/>
<path d="M1569.28 0.870876L1568.12 0.870325L1567.74 800.025L1568.9 800.025L1569.28 0.870876Z" fill="#0EACEF"/>
</g>
</svg>
