<svg width="1600" height="341" viewBox="0 0 1600 341" fill="none" xmlns="http://www.w3.org/2000/svg">
<g opacity="0.3">
<path d="M0.381964 0.479492L800.825 0.861445L800.443 801.17L0 800.789L0.381964 0.479492ZM799.67 2.01566L1.53637 1.63481L1.15551 799.634L799.289 800.015L799.67 2.01566Z" fill="#0EACEF"/>
<path d="M800.231 31.5776L0.942867 31.1962L0.942315 32.351L800.23 32.7324L800.231 31.5776Z" fill="#0EACEF"/>
<path d="M800.216 62.3525L0.927682 61.9711L0.927131 63.1258L800.215 63.5072L800.216 62.3525Z" fill="#0EACEF"/>
<path d="M800.203 93.0689L0.914395 92.6875L0.913844 93.8422L800.202 94.2236L800.203 93.0689Z" fill="#0EACEF"/>
<path d="M800.185 123.786L0.897313 123.405L0.896762 124.559L800.185 124.941L800.185 123.786Z" fill="#0EACEF"/>
<path d="M800.17 154.56L0.882128 154.179L0.881577 155.334L800.17 155.715L800.17 154.56Z" fill="#0EACEF"/>
<path d="M800.157 185.277L0.868842 184.895L0.86829 186.05L800.156 186.431L800.157 185.277Z" fill="#0EACEF"/>
<path d="M800.142 215.994L0.853657 215.612L0.853106 216.767L800.141 217.148L800.142 215.994Z" fill="#0EACEF"/>
<path d="M800.129 246.768L0.84037 246.387L0.839819 247.541L800.128 247.923L800.129 246.768Z" fill="#0EACEF"/>
<path d="M800.113 277.485L0.825186 277.104L0.824635 278.258L800.113 278.64L800.113 277.485Z" fill="#0EACEF"/>
<path d="M800.098 308.201L0.810001 307.82L0.80945 308.975L800.098 309.356L800.098 308.201Z" fill="#0EACEF"/>
<path d="M800.083 338.976L0.794817 338.595L0.794266 339.75L800.082 340.131L800.083 338.976Z" fill="#0EACEF"/>
<path d="M800.068 369.693L0.779632 369.311L0.779081 370.466L800.067 370.847L800.068 369.693Z" fill="#0EACEF"/>
<path d="M800.055 400.409L0.766345 400.028L0.765794 401.182L800.054 401.564L800.055 400.409Z" fill="#0EACEF"/>
<path d="M800.039 431.184L0.751161 430.803L0.75061 431.957L800.039 432.339L800.039 431.184Z" fill="#0EACEF"/>
<path d="M800.024 461.9L0.735976 461.519L0.735425 462.674L800.024 463.055L800.024 461.9Z" fill="#0EACEF"/>
<path d="M800.011 492.617L0.72269 492.236L0.722139 493.391L800.01 493.772L800.011 492.617Z" fill="#0EACEF"/>
<path d="M799.996 523.392L0.707505 523.01L0.706954 524.165L799.995 524.547L799.996 523.392Z" fill="#0EACEF"/>
<path d="M799.98 554.108L0.692321 553.727L0.691769 554.882L799.98 555.263L799.98 554.108Z" fill="#0EACEF"/>
<path d="M799.967 584.883L0.679034 584.502L0.678483 585.656L799.967 586.038L799.967 584.883Z" fill="#0EACEF"/>
<path d="M799.952 615.6L0.663849 615.218L0.663298 616.373L799.951 616.754L799.952 615.6Z" fill="#0EACEF"/>
<path d="M799.937 646.316L0.648665 645.935L0.648114 647.09L799.936 647.471L799.937 646.316Z" fill="#0EACEF"/>
<path d="M799.922 677.091L0.63348 676.709L0.632929 677.864L799.921 678.246L799.922 677.091Z" fill="#0EACEF"/>
<path d="M799.905 707.807L0.616398 707.426L0.615846 708.581L799.904 708.962L799.905 707.807Z" fill="#0EACEF"/>
<path d="M799.891 738.524L0.603111 738.143L0.60256 739.298L799.891 739.679L799.891 738.524Z" fill="#0EACEF"/>
<path d="M799.876 769.299L0.587926 768.917L0.587375 770.072L799.875 770.453L799.876 769.299Z" fill="#0EACEF"/>
<path d="M32.2601 1.07195L31.1052 1.0714L30.7238 800.226L31.8787 800.226L32.2601 1.07195Z" fill="#0EACEF"/>
<path d="M63.0393 1.08666L61.8844 1.08611L61.503 800.24L62.6579 800.241L63.0393 1.08666Z" fill="#0EACEF"/>
<path d="M93.7635 1.10131L92.6085 1.10075L92.2271 800.255L93.3821 800.256L93.7635 1.10131Z" fill="#0EACEF"/>
<path d="M124.476 1.11596L123.321 1.1154L122.94 800.27L124.095 800.27L124.476 1.11596Z" fill="#0EACEF"/>
<path d="M155.257 1.13072L154.102 1.13017L153.721 800.284L154.876 800.285L155.257 1.13072Z" fill="#0EACEF"/>
<path d="M185.98 1.14537L184.825 1.14482L184.443 800.299L185.598 800.3L185.98 1.14537Z" fill="#0EACEF"/>
<path d="M216.704 1.1599L215.549 1.15935L215.167 800.314L216.322 800.314L216.704 1.1599Z" fill="#0EACEF"/>
<path d="M247.485 1.17467L246.33 1.17412L245.949 800.328L247.103 800.329L247.485 1.17467Z" fill="#0EACEF"/>
<path d="M278.205 1.18932L277.05 1.18877L276.669 800.343L277.824 800.344L278.205 1.18932Z" fill="#0EACEF"/>
<path d="M308.929 1.20397L307.774 1.20342L307.393 800.358L308.548 800.358L308.929 1.20397Z" fill="#0EACEF"/>
<path d="M339.709 1.21874L338.554 1.21819L338.172 800.372L339.327 800.373L339.709 1.21874Z" fill="#0EACEF"/>
<path d="M370.433 1.23333L369.278 1.23278L368.896 800.387L370.051 800.388L370.433 1.23333Z" fill="#0EACEF"/>
<path d="M401.147 1.24798L399.992 1.24743L399.611 800.402L400.766 800.402L401.147 1.24798Z" fill="#0EACEF"/>
<path d="M431.927 1.26274L430.772 1.26219L430.39 800.416L431.545 800.417L431.927 1.26274Z" fill="#0EACEF"/>
<path d="M462.653 1.27733L461.498 1.27678L461.116 800.431L462.271 800.432L462.653 1.27733Z" fill="#0EACEF"/>
<path d="M493.373 1.29198L492.218 1.29143L491.837 800.446L492.992 800.446L493.373 1.29198Z" fill="#0EACEF"/>
<path d="M524.152 1.30669L522.997 1.30614L522.616 800.46L523.771 800.461L524.152 1.30669Z" fill="#0EACEF"/>
<path d="M554.876 1.32134L553.721 1.32079L553.34 800.475L554.495 800.476L554.876 1.32134Z" fill="#0EACEF"/>
<path d="M585.6 1.33599L584.446 1.33544L584.064 800.49L585.219 800.49L585.6 1.33599Z" fill="#0EACEF"/>
<path d="M616.38 1.35076L615.225 1.35021L614.843 800.505L615.998 800.505L616.38 1.35076Z" fill="#0EACEF"/>
<path d="M647.094 1.36541L645.939 1.36486L645.558 800.519L646.713 800.52L647.094 1.36541Z" fill="#0EACEF"/>
<path d="M677.874 1.38L676.719 1.37945L676.337 800.534L677.492 800.534L677.874 1.38Z" fill="#0EACEF"/>
<path d="M708.6 1.39471L707.445 1.39416L707.063 800.548L708.218 800.549L708.6 1.39471Z" fill="#0EACEF"/>
<path d="M739.322 1.40936L738.167 1.40881L737.786 800.563L738.94 800.564L739.322 1.40936Z" fill="#0EACEF"/>
<path d="M770.103 1.42401L768.948 1.42346L768.567 800.578L769.721 800.578L770.103 1.42401Z" fill="#0EACEF"/>
<path d="M799.557 0.860909L1600 1.24286L1599.62 801.552L799.175 801.17L799.557 0.860909ZM1598.84 2.39707L800.711 2.01622L800.33 800.016L1598.46 800.397L1598.84 2.39707Z" fill="#0EACEF"/>
<path d="M1599.41 31.959L800.117 31.5776L800.116 32.7324L1599.4 33.1138L1599.41 31.959Z" fill="#0EACEF"/>
<path d="M1599.39 62.7338L800.102 62.3524L800.101 63.5072L1599.39 63.8886L1599.39 62.7338Z" fill="#0EACEF"/>
<path d="M1599.38 93.4503L800.088 93.0689L800.088 94.2237L1599.38 94.6051L1599.38 93.4503Z" fill="#0EACEF"/>
<path d="M1599.36 124.167L800.073 123.786L800.073 124.941L1599.36 125.322L1599.36 124.167Z" fill="#0EACEF"/>
<path d="M1599.35 154.942L800.058 154.56L800.057 155.715L1599.35 156.096L1599.35 154.942Z" fill="#0EACEF"/>
<path d="M1599.33 185.658L800.045 185.277L800.044 186.431L1599.33 186.813L1599.33 185.658Z" fill="#0EACEF"/>
<path d="M1599.32 216.375L800.03 215.994L800.029 217.148L1599.32 217.53L1599.32 216.375Z" fill="#0EACEF"/>
<path d="M1599.3 247.149L800.016 246.768L800.016 247.923L1599.3 248.304L1599.3 247.149Z" fill="#0EACEF"/>
<path d="M1599.29 277.866L800.001 277.485L800.001 278.64L1599.29 279.021L1599.29 277.866Z" fill="#0EACEF"/>
<path d="M1599.27 308.583L799.984 308.201L799.984 309.356L1599.27 309.738L1599.27 308.583Z" fill="#0EACEF"/>
<path d="M1599.26 339.358L799.969 338.976L799.968 340.131L1599.26 340.512L1599.26 339.358Z" fill="#0EACEF"/>
<path d="M1599.24 370.074L799.954 369.693L799.953 370.847L1599.24 371.229L1599.24 370.074Z" fill="#0EACEF"/>
<path d="M1599.23 400.791L799.94 400.409L799.94 401.564L1599.23 401.945L1599.23 400.791Z" fill="#0EACEF"/>
<path d="M1599.21 431.565L799.925 431.184L799.925 432.339L1599.21 432.72L1599.21 431.565Z" fill="#0EACEF"/>
<path d="M1599.2 462.282L799.91 461.9L799.909 463.055L1599.2 463.437L1599.2 462.282Z" fill="#0EACEF"/>
<path d="M1599.18 492.999L799.897 492.618L799.896 493.772L1599.18 494.154L1599.18 492.999Z" fill="#0EACEF"/>
<path d="M1599.17 523.773L799.882 523.392L799.881 524.547L1599.17 524.928L1599.17 523.773Z" fill="#0EACEF"/>
<path d="M1599.15 554.49L799.865 554.108L799.864 555.263L1599.15 555.644L1599.15 554.49Z" fill="#0EACEF"/>
<path d="M1599.14 585.264L799.851 584.883L799.851 586.038L1599.14 586.419L1599.14 585.264Z" fill="#0EACEF"/>
<path d="M1599.12 615.981L799.836 615.6L799.835 616.754L1599.12 617.136L1599.12 615.981Z" fill="#0EACEF"/>
<path d="M1599.11 646.698L799.823 646.317L799.822 647.471L1599.11 647.853L1599.11 646.698Z" fill="#0EACEF"/>
<path d="M1599.1 677.472L799.808 677.091L799.807 678.246L1599.1 678.627L1599.1 677.472Z" fill="#0EACEF"/>
<path d="M1599.08 708.189L799.792 707.807L799.792 708.962L1599.08 709.343L1599.08 708.189Z" fill="#0EACEF"/>
<path d="M1599.07 738.906L799.779 738.524L799.779 739.679L1599.07 740.06L1599.07 738.906Z" fill="#0EACEF"/>
<path d="M1599.05 769.68L799.764 769.298L799.763 770.453L1599.05 770.835L1599.05 769.68Z" fill="#0EACEF"/>
<path d="M831.436 1.45333L830.281 1.45278L829.9 800.607L831.055 800.608L831.436 1.45333Z" fill="#0EACEF"/>
<path d="M862.215 1.46804L861.06 1.46749L860.679 800.622L861.834 800.622L862.215 1.46804Z" fill="#0EACEF"/>
<path d="M892.938 1.48275L891.783 1.48219L891.401 800.636L892.556 800.637L892.938 1.48275Z" fill="#0EACEF"/>
<path d="M923.648 1.49734L922.493 1.49678L922.112 800.651L923.267 800.652L923.648 1.49734Z" fill="#0EACEF"/>
<path d="M954.43 1.5121L953.275 1.51155L952.893 800.666L954.048 800.666L954.43 1.5121Z" fill="#0EACEF"/>
<path d="M985.152 1.52669L983.997 1.52614L983.615 800.68L984.77 800.681L985.152 1.52669Z" fill="#0EACEF"/>
<path d="M1015.88 1.54134L1014.72 1.54079L1014.34 800.695L1015.49 800.696L1015.88 1.54134Z" fill="#0EACEF"/>
<path d="M1046.66 1.55611L1045.5 1.55556L1045.12 800.71L1046.28 800.71L1046.66 1.55611Z" fill="#0EACEF"/>
<path d="M1077.38 1.57076L1076.23 1.57021L1075.84 800.724L1077 800.725L1077.38 1.57076Z" fill="#0EACEF"/>
<path d="M1108.11 1.58541L1106.95 1.58486L1106.57 800.739L1107.72 800.74L1108.11 1.58541Z" fill="#0EACEF"/>
<path d="M1138.88 1.60012L1137.73 1.59957L1137.35 800.754L1138.5 800.754L1138.88 1.60012Z" fill="#0EACEF"/>
<path d="M1169.61 1.61471L1168.45 1.61416L1168.07 800.768L1169.23 800.769L1169.61 1.61471Z" fill="#0EACEF"/>
<path d="M1200.32 1.62936L1199.17 1.62881L1198.79 800.783L1199.94 800.784L1200.32 1.62936Z" fill="#0EACEF"/>
<path d="M1231.1 1.64413L1229.95 1.64357L1229.56 800.798L1230.72 800.798L1231.1 1.64413Z" fill="#0EACEF"/>
<path d="M1261.82 1.65878L1260.67 1.65822L1260.29 800.812L1261.44 800.813L1261.82 1.65878Z" fill="#0EACEF"/>
<path d="M1292.55 1.67337L1291.39 1.67281L1291.01 800.827L1292.17 800.828L1292.55 1.67337Z" fill="#0EACEF"/>
<path d="M1323.33 1.68813L1322.17 1.68758L1321.79 800.842L1322.95 800.842L1323.33 1.68813Z" fill="#0EACEF"/>
<path d="M1354.05 1.70278L1352.9 1.70223L1352.52 800.857L1353.67 800.857L1354.05 1.70278Z" fill="#0EACEF"/>
<path d="M1384.77 1.71743L1383.62 1.71688L1383.24 800.871L1384.39 800.872L1384.77 1.71743Z" fill="#0EACEF"/>
<path d="M1415.56 1.73214L1414.4 1.73159L1414.02 800.886L1415.17 800.886L1415.56 1.73214Z" fill="#0EACEF"/>
<path d="M1446.27 1.74673L1445.11 1.74618L1444.73 800.9L1445.89 800.901L1446.27 1.74673Z" fill="#0EACEF"/>
<path d="M1477.05 1.76138L1475.89 1.76083L1475.51 800.915L1476.67 800.916L1477.05 1.76138Z" fill="#0EACEF"/>
<path d="M1507.77 1.77615L1506.62 1.7756L1506.24 800.93L1507.39 800.93L1507.77 1.77615Z" fill="#0EACEF"/>
<path d="M1538.5 1.7908L1537.34 1.79025L1536.96 800.945L1538.12 800.945L1538.5 1.7908Z" fill="#0EACEF"/>
<path d="M1569.28 1.80545L1568.12 1.8049L1567.74 800.959L1568.9 800.96L1569.28 1.80545Z" fill="#0EACEF"/>
</g>
</svg>
