<svg width="16" height="13" viewBox="0 0 16 13" fill="none" xmlns="http://www.w3.org/2000/svg">
<path d="M13.5535 1.57928C12.5178 1.0947 11.4104 0.742523 10.2526 0.541992C10.1104 0.799066 9.94429 1.14484 9.82976 1.41989C8.599 1.2348 7.37956 1.2348 6.17144 1.41989C6.05693 1.14484 5.88704 0.799066 5.74357 0.541992C4.58454 0.742523 3.47584 1.09599 2.44013 1.58185C0.351095 4.73865 -0.215207 7.81704 0.0679444 10.8517C1.4535 11.8864 2.79627 12.515 4.11638 12.9263C4.44233 12.4777 4.73302 12.0008 4.98345 11.4983C4.5065 11.317 4.04969 11.0934 3.61805 10.8337C3.73256 10.7489 3.84457 10.6602 3.95279 10.5689C6.58546 11.8003 9.44593 11.8003 12.0472 10.5689C12.1566 10.6602 12.2686 10.7489 12.3819 10.8337C11.949 11.0947 11.4909 11.3183 11.014 11.4996C11.2644 12.0008 11.5538 12.479 11.881 12.9276C13.2024 12.5162 14.5464 11.8877 15.932 10.8517C16.2642 7.33375 15.3644 4.28363 13.5535 1.57928ZM5.34212 8.98542C4.55181 8.98542 3.9037 8.24763 3.9037 7.34917C3.9037 6.45072 4.53797 5.71165 5.34212 5.71165C6.14628 5.71165 6.79437 6.44943 6.78053 7.34917C6.78178 8.24763 6.14628 8.98542 5.34212 8.98542ZM10.6578 8.98542C9.86752 8.98542 9.21941 8.24763 9.21941 7.34917C9.21941 6.45072 9.85366 5.71165 10.6578 5.71165C11.462 5.71165 12.1101 6.44943 12.0962 7.34917C12.0962 8.24763 11.462 8.98542 10.6578 8.98542Z" fill="white"/>
</svg>
