<svg width="16" height="17" viewBox="0 0 16 17" fill="none" xmlns="http://www.w3.org/2000/svg">
<path d="M7.99597 0.734375C4.6463 0.734375 1.77136 2.80733 0.582862 5.73652C0.570394 5.7635 0.559437 5.79115 0.550046 5.81934C0.194954 6.72332 0 7.70649 0 8.73438C0 9.76226 0.194952 10.7454 0.550046 11.6494C0.559438 11.6776 0.570395 11.7053 0.582862 11.7322C1.77136 14.6614 4.6463 16.7344 7.99597 16.7344C11.3426 16.7344 14.2185 14.665 15.4106 11.74C15.4128 11.7348 15.4149 11.7296 15.417 11.7243C15.4215 11.7134 15.4267 11.7025 15.4312 11.6915C15.435 11.6822 15.4386 11.6728 15.4421 11.6634C15.4448 11.6567 15.4472 11.6498 15.45 11.6431C15.8039 10.7409 16 9.75979 16 8.73433C16 7.70887 15.8039 6.72775 15.45 5.82552C15.4474 5.81873 15.4448 5.81198 15.4421 5.80527C15.4385 5.79589 15.4348 5.78652 15.4312 5.77715C15.425 5.76078 15.4182 5.74462 15.411 5.7287C14.2188 2.80372 11.3426 0.734375 7.99597 0.734375ZM9.81956 2.5965C11.311 3.03628 12.5727 4.00126 13.3917 5.28035H10.9572C10.6853 4.34718 10.304 3.44596 9.81956 2.5965ZM6.14269 2.60589C5.66895 3.45302 5.29723 4.35038 5.03166 5.28035H2.60022C3.41357 4.01019 4.66489 3.04989 6.14269 2.60589ZM7.98347 2.66995C8.53434 3.48317 8.96914 4.3613 9.28045 5.28037H6.70524C7.01218 4.36112 7.44169 3.48298 7.98347 2.66995ZM1.86578 6.88007H4.68476C4.59378 7.49108 4.54725 8.11076 4.54725 8.73438C4.54725 9.35799 4.59378 9.9777 4.68476 10.5887H1.86578C1.68932 10.002 1.59388 9.37972 1.59388 8.73438C1.59388 8.08903 1.68932 7.46677 1.86578 6.88007ZM6.30052 6.88007H9.68987C9.79666 7.48962 9.85082 8.1095 9.85082 8.73438C9.85082 9.35917 9.79666 9.97915 9.68987 10.5887H6.30052C6.19525 9.97951 6.14113 9.35901 6.14113 8.73438C6.14113 8.10974 6.19525 7.48927 6.30052 6.88007ZM11.3119 6.88007H14.1277C14.3042 7.46672 14.398 8.08908 14.398 8.73438C14.398 9.37967 14.3042 10.002 14.1277 10.5887H11.3119C11.4048 9.97801 11.4509 9.35795 11.4509 8.73438C11.4509 8.11072 11.4047 7.49078 11.3119 6.88007ZM2.60022 12.1884H5.03166C5.29723 13.1184 5.66895 14.0157 6.14269 14.8629C4.66489 14.4188 3.41357 13.4586 2.60022 12.1884ZM6.70524 12.1884H9.28045C8.96906 13.1076 8.53279 13.9855 7.98191 14.7988C7.44036 13.986 7.01208 13.1074 6.70524 12.1884ZM10.9572 12.1884H13.3917C12.5727 13.4675 11.311 14.4325 9.81956 14.8722C10.3039 14.0228 10.6852 13.1216 10.9572 12.1884Z" fill="white"/>
</svg>
