<svg width="16" height="15" viewBox="0 0 16 15" fill="none" xmlns="http://www.w3.org/2000/svg">
<path fill-rule="evenodd" clip-rule="evenodd" d="M1.0955 6.77246C5.38958 4.80296 8.24822 3.49427 9.68367 2.85937C13.7692 1.05831 14.628 0.747332 15.1801 0.734375C15.3028 0.734375 15.5727 0.76029 15.7567 0.915777C15.904 1.04535 15.9408 1.21379 15.9653 1.34337C15.9898 1.47294 16.0144 1.74504 15.9898 1.95236C15.769 4.41424 14.812 10.3875 14.3213 13.1345C14.1127 14.3006 13.7078 14.6893 13.3152 14.7282C12.4564 14.806 11.8062 14.1322 10.9842 13.5621C9.68367 12.668 8.95981 12.1109 7.69612 11.2298C6.23613 10.2191 7.18083 9.66193 8.01511 8.75492C8.23595 8.52169 12.0025 4.89366 12.0761 4.56973C12.0884 4.53085 12.0884 4.37537 12.0025 4.29762C11.9166 4.21988 11.7939 4.24579 11.6958 4.27171C11.5608 4.29762 9.49963 5.74884 5.48773 8.61239C4.89883 9.03998 4.37127 9.2473 3.89279 9.23434C3.36523 9.22138 2.35919 8.92336 1.59852 8.66422C0.67836 8.35325 -0.0577693 8.1848 0.00357478 7.6406C0.0403812 7.35554 0.408445 7.07048 1.0955 6.77246Z" fill="white"/>
</svg>
